<?xml version="1.0" encoding="UTF-8" standalone="no"?>
<!DOCTYPE svg PUBLIC "-//W3C//DTD SVG 1.1//EN" "http://www.w3.org/Graphics/SVG/1.1/DTD/svg11.dtd">
<svg width="100%" height="100%" viewBox="0 0 466 191" version="1.1" xmlns="http://www.w3.org/2000/svg" xmlns:xlink="http://www.w3.org/1999/xlink" xml:space="preserve" xmlns:serif="http://www.serif.com/" style="fill-rule:evenodd;clip-rule:evenodd;stroke-linejoin:round;stroke-miterlimit:2;">
    <g transform="matrix(1,0,0,1,-23.3911,-160.606)">
        <g id="Solid" transform="matrix(6.1149e-17,1,-1,6.1149e-17,511.891,-0.26608)">
            <circle cx="256" cy="256" r="24" style="fill:rgb(62,167,68);stroke:rgb(62,167,68);stroke-width:1px;"/>
            <path d="M312,377.941L280,409.941L280,336C280,322.834 269.166,312 256,312C242.834,312 232,322.834 232,336L232,409.941L200,377.941C195.758,373.699 189.999,371.314 184,371.314C171.587,371.314 161.373,381.528 161.373,393.941C161.373,399.94 163.758,405.699 168,409.941L239.029,480.97C243.528,485.469 249.637,488 256,488C262.363,488 268.472,485.469 272.971,480.97L344,409.941C348.242,405.699 350.627,399.94 350.627,393.941C350.627,381.528 340.413,371.314 328,371.314C322.001,371.314 316.242,373.699 312,377.941Z" style="fill:rgb(62,167,68);fill-rule:nonzero;stroke:rgb(62,167,68);stroke-width:1px;"/>
            <path d="M168,134.059C172.242,138.301 178.001,140.687 184,140.687C189.999,140.687 195.758,138.301 200,134.059L232,102.059L232,176C232,189.166 242.834,200 256,200C269.166,200 280,189.166 280,176L280,102.059L312,134.059C316.242,138.301 322.001,140.687 328,140.687C333.999,140.687 339.758,138.301 344,134.059C348.242,129.817 350.628,124.058 350.628,118.059C350.628,112.06 348.242,106.301 344,102.059L272.971,31.029C268.472,26.53 262.363,23.999 256,23.999C249.637,23.999 243.528,26.53 239.029,31.029L168,102.059C163.758,106.301 161.372,112.06 161.372,118.059C161.372,124.058 163.758,129.817 168,134.059Z" style="fill:rgb(62,167,68);fill-rule:nonzero;stroke:rgb(62,167,68);stroke-width:1px;"/>
        </g>
    </g>
</svg>
