<svg xmlns="http://www.w3.org/2000/svg" xmlns:xlink="http://www.w3.org/1999/xlink" viewBox="0 0 451.19 169.67"><defs><style>.cls-1,.cls-12,.cls-19,.cls-5{fill:#9d7ba8;}.cls-2{opacity:0.49;}.cls-3{clip-path:url(#clip-path);}.cls-4{clip-path:url(#clip-path-2);}.cls-12,.cls-19,.cls-25,.cls-26,.cls-5{stroke-miterlimit:10;}.cls-5{stroke:url(#linear-gradient);}.cls-6{clip-path:url(#clip-path-3);}.cls-7{clip-path:url(#clip-path-4);}.cls-8{clip-path:url(#clip-path-5);}.cls-9{clip-path:url(#clip-path-6);}.cls-10{clip-path:url(#clip-path-7);}.cls-11{clip-path:url(#clip-path-8);}.cls-12{stroke:url(#linear-gradient-2);}.cls-13{clip-path:url(#clip-path-9);}.cls-14{clip-path:url(#clip-path-10);}.cls-15{clip-path:url(#clip-path-11);}.cls-16{clip-path:url(#clip-path-12);}.cls-17{clip-path:url(#clip-path-13);}.cls-18{clip-path:url(#clip-path-14);}.cls-19{stroke:url(#linear-gradient-3);}.cls-20{clip-path:url(#clip-path-15);}.cls-21{clip-path:url(#clip-path-16);}.cls-22{clip-path:url(#clip-path-17);}.cls-23{clip-path:url(#clip-path-18);}.cls-24{fill:#5b3c69;}.cls-25,.cls-26{fill:none;stroke:#9d7ba8;}.cls-25{stroke-width:0.5px;}.cls-26{stroke-width:0.75px;}.cls-27{fill:#8e8e8e;}</style><clipPath id="clip-path"><polygon class="cls-1" points="65.39 10.55 65.39 146.41 66.4 147.21 66.41 9.53 65.39 10.55"/></clipPath><clipPath id="clip-path-2"><path class="cls-1" d="M42.87,9.43l18.06,1.43V145.22L42.87,156.39ZM40.31.5V169.15l28.91-19.41V3.77L41,.5Z"/></clipPath><linearGradient id="linear-gradient" x1="39.81" y1="84.82" x2="69.72" y2="84.82" gradientUnits="userSpaceOnUse"><stop offset="0" stop-color="#e6e7e8"/><stop offset="0.62" stop-color="#e4e5e6"/><stop offset="0.84" stop-color="#dddfe0"/><stop offset="0.99" stop-color="#d2d4d5"/><stop offset="1" stop-color="#d1d3d4"/></linearGradient><clipPath id="clip-path-3"><polygon class="cls-1" points="42.9 8.7 65.39 10.55 66.41 9.53 42.47 7.55 42.9 8.7"/></clipPath><clipPath id="clip-path-4"><polygon class="cls-1" points="42.89 160.53 42.45 162.28 66.4 147.2 65.37 146.4 42.89 160.53"/></clipPath><clipPath id="clip-path-5"><polygon class="cls-1" points="42.9 8.7 54.58 9.66 54.58 8.55 42.47 7.55 42.9 8.7"/></clipPath><clipPath id="clip-path-6"><polygon class="cls-1" points="40.08 0.5 39.94 0.54 39.94 169.05 40.3 169.16 40.3 0.5 40.08 0.5"/></clipPath><clipPath id="clip-path-7"><polygon class="cls-1" points="3.32 147.21 4.33 146.41 4.33 10.55 3.31 9.53 3.32 147.21"/></clipPath><clipPath id="clip-path-8"><path class="cls-1" d="M8.79,145.22V10.86L26.85,9.43v147ZM28.77.5.5,3.77v146l28.9,19.41V.5Z"/></clipPath><linearGradient id="linear-gradient-2" x1="0" y1="84.82" x2="29.9" y2="84.82" xlink:href="#linear-gradient"/><clipPath id="clip-path-9"><polygon class="cls-1" points="3.31 9.53 4.33 10.55 26.82 8.7 27.25 7.55 3.31 9.53"/></clipPath><clipPath id="clip-path-10"><polygon class="cls-1" points="3.32 147.2 27.26 162.28 26.83 160.53 4.35 146.4 3.32 147.2"/></clipPath><clipPath id="clip-path-11"><polygon class="cls-1" points="15.13 8.55 15.13 9.66 26.82 8.7 27.25 7.55 15.13 8.55"/></clipPath><clipPath id="clip-path-12"><polygon class="cls-1" points="29.41 0.5 29.41 169.16 29.78 169.05 29.78 0.54 29.64 0.5 29.41 0.5"/></clipPath><clipPath id="clip-path-13"><polygon class="cls-1" points="74.17 147.21 75.19 146.41 75.19 10.55 74.16 9.53 74.17 147.21"/></clipPath><clipPath id="clip-path-14"><path class="cls-1" d="M79.64,145.22V10.86L97.7,9.43v147ZM99.62.5,71.35,3.77v146l28.91,19.41V.5Z"/></clipPath><linearGradient id="linear-gradient-3" x1="70.85" y1="84.82" x2="100.76" y2="84.82" xlink:href="#linear-gradient"/><clipPath id="clip-path-15"><polygon class="cls-1" points="74.16 9.53 75.19 10.55 97.67 8.7 98.1 7.55 74.16 9.53"/></clipPath><clipPath id="clip-path-16"><polygon class="cls-1" points="74.17 147.2 98.11 162.28 97.68 160.53 75.2 146.4 74.17 147.2"/></clipPath><clipPath id="clip-path-17"><polygon class="cls-1" points="85.99 8.55 85.99 9.66 97.67 8.7 98.1 7.55 85.99 8.55"/></clipPath><clipPath id="clip-path-18"><polygon class="cls-1" points="103.77 168.1 104.64 167.83 104.64 3.05 103.77 2.68 103.77 168.1"/></clipPath></defs><title>logo</title><g id="Layer_2" data-name="Layer 2"><g id="Layer_2-2" data-name="Layer 2"><g class="cls-2"><polygon class="cls-1" points="65.39 10.55 65.39 146.41 66.4 147.21 66.41 9.53 65.39 10.55"/><g class="cls-3"><rect class="cls-1" x="65.39" y="9.53" width="1.03" height="137.68"/></g><path class="cls-1" d="M42.87,9.43l18.06,1.43V145.22L42.87,156.39ZM40.31.5V169.15l28.91-19.41V3.77L41,.5Z"/><g class="cls-4"><rect class="cls-5" x="40.31" y="0.5" width="28.9" height="168.65"/></g><polygon class="cls-1" points="42.9 8.7 65.39 10.55 66.41 9.53 42.47 7.55 42.9 8.7"/><g class="cls-6"><rect class="cls-1" x="42.47" y="7.55" width="23.94" height="3.01"/></g><polygon class="cls-1" points="64.47 146.19 63.56 145.93 63.56 10.4 64.47 10.48 64.47 146.19"/><polygon class="cls-1" points="42.89 160.53 42.45 162.28 66.4 147.2 65.37 146.4 42.89 160.53"/><g class="cls-7"><rect class="cls-1" x="42.45" y="146.4" width="23.94" height="15.88"/></g><polygon class="cls-1" points="42.89 160.56 42.47 162.27 42.47 7.55 42.89 8.75 42.89 160.56"/><polygon class="cls-1" points="42.86 159 42.87 159.71 64.47 146.18 63.57 145.93 42.86 159"/><polygon class="cls-1" points="42.87 158.05 42.86 159 63.56 145.93 62.66 145.67 42.87 158.05"/><polygon class="cls-1" points="63.56 10.62 63.56 10.4 42.86 8.74 42.86 8.98 63.56 10.62"/><polygon class="cls-1" points="42.9 8.7 54.58 9.66 54.58 8.55 42.47 7.55 42.9 8.7"/><g class="cls-8"><rect class="cls-1" x="42.47" y="7.55" width="12.11" height="2.12"/></g><polygon class="cls-1" points="40.08 0.5 39.94 0.54 39.94 169.05 40.3 169.16 40.3 0.5 40.08 0.5"/><g class="cls-9"><rect class="cls-1" x="39.94" y="0.5" width="0.37" height="168.66"/></g><polyline class="cls-1" points="36.8 167.17 35.92 167.17 35.92 2.68 36.8 2.68"/><polygon class="cls-1" points="3.32 147.21 4.33 146.41 4.33 10.55 3.31 9.53 3.32 147.21"/><g class="cls-10"><rect class="cls-1" x="3.3" y="9.53" width="1.03" height="137.68"/></g><path class="cls-1" d="M8.79,145.22V10.86L26.85,9.43v147ZM28.77.5.5,3.77v146l28.9,19.41V.5Z"/><g class="cls-11"><rect class="cls-12" x="0.5" y="0.5" width="28.9" height="168.65"/></g><polygon class="cls-1" points="3.31 9.53 4.33 10.55 26.82 8.7 27.25 7.55 3.31 9.53"/><g class="cls-13"><rect class="cls-1" x="3.31" y="7.55" width="23.94" height="3.01"/></g><polygon class="cls-1" points="5.24 146.19 6.15 145.93 6.15 10.4 5.24 10.48 5.24 146.19"/><polygon class="cls-1" points="3.32 147.2 27.26 162.28 26.83 160.53 4.35 146.4 3.32 147.2"/><g class="cls-14"><rect class="cls-1" x="3.32" y="146.4" width="23.94" height="15.88"/></g><polygon class="cls-1" points="26.83 160.56 27.25 162.27 27.25 7.55 26.83 8.75 26.83 160.56"/><polygon class="cls-1" points="26.86 159 26.85 159.71 5.24 146.18 6.15 145.93 26.86 159"/><polygon class="cls-1" points="26.85 158.05 26.86 159 6.15 145.93 7.06 145.67 26.85 158.05"/><polygon class="cls-1" points="6.15 10.62 6.15 10.4 26.86 8.74 26.86 8.98 6.15 10.62"/><polygon class="cls-1" points="15.13 8.55 15.13 9.66 26.82 8.7 27.25 7.55 15.13 8.55"/><g class="cls-15"><rect class="cls-1" x="15.13" y="7.55" width="12.11" height="2.12"/></g><polygon class="cls-1" points="29.41 0.5 29.41 169.16 29.78 169.05 29.78 0.54 29.64 0.5 29.41 0.5"/><g class="cls-16"><rect class="cls-1" x="29.41" y="0.5" width="0.37" height="168.66"/></g><rect class="cls-1" x="32.92" y="2.68" width="0.86" height="164.28"/><polygon class="cls-1" points="74.17 147.21 75.19 146.41 75.19 10.55 74.16 9.53 74.17 147.21"/><g class="cls-17"><rect class="cls-1" x="74.16" y="9.53" width="1.03" height="137.68"/></g><path class="cls-1" d="M79.64,145.22V10.86L97.7,9.43v147ZM99.62.5,71.35,3.77v146l28.91,19.41V.5Z"/><g class="cls-18"><rect class="cls-19" x="71.35" y="0.5" width="28.9" height="168.65"/></g><polygon class="cls-1" points="74.16 9.53 75.19 10.55 97.67 8.7 98.1 7.55 74.16 9.53"/><g class="cls-20"><rect class="cls-1" x="74.16" y="7.55" width="23.94" height="3.01"/></g><polygon class="cls-1" points="76.1 146.19 77 145.93 77 10.4 76.1 10.48 76.1 146.19"/><polygon class="cls-1" points="74.17 147.2 98.11 162.28 97.68 160.53 75.2 146.4 74.17 147.2"/><g class="cls-21"><rect class="cls-1" x="74.17" y="146.4" width="23.94" height="15.88"/></g><polygon class="cls-1" points="97.68 160.56 98.1 162.27 98.1 7.55 97.68 8.75 97.68 160.56"/><polygon class="cls-1" points="97.71 159 97.7 159.71 76.1 146.18 77 145.93 97.71 159"/><line class="cls-1" x1="78.82" y1="10.25" x2="77.91" y2="10.33"/><polygon class="cls-1" points="97.7 158.05 97.71 159 77 145.93 77.91 145.67 97.7 158.05"/><polygon class="cls-1" points="77 10.62 77 10.4 97.71 8.74 97.71 8.98 77 10.62"/><polygon class="cls-1" points="85.99 8.55 85.99 9.66 97.67 8.7 98.1 7.55 85.99 8.55"/><g class="cls-22"><rect class="cls-1" x="85.99" y="7.55" width="12.11" height="2.12"/></g><rect class="cls-1" x="100.27" y="0.5" width="0.37" height="168.66"/><polygon class="cls-1" points="103.77 168.1 104.64 167.83 104.64 3.05 103.77 2.68 103.77 168.1"/><g class="cls-23"><rect class="cls-1" x="103.77" y="2.68" width="0.86" height="165.42"/></g><polygon class="cls-1" points="36.75 68.19 36.83 68.17 36.83 61.76 36.75 61.79 36.75 68.19"/><polygon class="cls-1" points="36.75 11.95 36.83 11.92 36.83 5.51 36.75 5.54 36.75 11.95"/><polygon class="cls-1" points="36.75 114.69 36.83 114.67 36.83 108.26 36.75 108.29 36.75 114.69"/><rect class="cls-24" x="98.19" y="76.69" width="1.83" height="4.89" rx="0.36"/><path class="cls-24" d="M90.26,78.51c.3,0,0,.19.53.19h7.63c.34,0,.14-.23.39-.23h.53a.19.19,0,0,1,.19.19v1.21s0,.34-.75.34h-8c-.32,0-.69-.1-.69-.29V78.64A.17.17,0,0,1,90.26,78.51Z"/><line class="cls-25" x1="35.92" y1="3.18" x2="40.08" y2="0.5"/><line class="cls-25" x1="33.76" y1="3.18" x2="29.6" y2="0.5"/><line class="cls-25" x1="35.92" y1="166.62" x2="40.08" y2="169.3"/><line class="cls-25" x1="33.76" y1="166.62" x2="29.6" y2="169.3"/><line class="cls-26" x1="104.41" y1="3.18" x2="100.26" y2="0.5"/><line class="cls-25" x1="104.63" y1="167.79" x2="100.22" y2="169.44"/></g><path class="cls-27" d="M175,1.84,150,30.55h.46a17.75,17.75,0,0,1,5.37-2.4,20,20,0,0,1,3.74-.4,27.92,27.92,0,0,1,11.78,2.45,29.19,29.19,0,0,1,9.34,6.71,30.74,30.74,0,0,1,6.18,10,33.61,33.61,0,0,1,2.22,12.26,32.66,32.66,0,0,1-2.57,13,30.43,30.43,0,0,1-7.41,10.5,34.75,34.75,0,0,1-11.72,7.06,48.51,48.51,0,0,1-31.16,0,35.44,35.44,0,0,1-11.73-7,30.26,30.26,0,0,1-7.41-10.33,31.09,31.09,0,0,1-2.57-12.54,45.46,45.46,0,0,1,3.33-16.17,62,62,0,0,1,10.21-17.09L148.5,1.84ZM137.18,59.6a13.72,13.72,0,0,0,1.17,5.66,15.22,15.22,0,0,0,3.15,4.61A14.87,14.87,0,0,0,146.11,73a14.28,14.28,0,0,0,11.32,0A15,15,0,0,0,162,69.87a15.22,15.22,0,0,0,3.15-4.61,14.28,14.28,0,0,0,0-11.32,15.1,15.1,0,0,0-7.76-7.76,14.39,14.39,0,0,0-11.32,0,15.1,15.1,0,0,0-7.76,7.76A13.75,13.75,0,0,0,137.18,59.6Z"/><path class="cls-27" d="M200.66,1.84h33.85a39.78,39.78,0,0,1,16.86,3.62,46.05,46.05,0,0,1,13.77,9.62,44.77,44.77,0,0,1,9.28,14,43.23,43.23,0,0,1,.06,33.37,44.66,44.66,0,0,1-9.22,14.06,45.38,45.38,0,0,1-13.77,9.69,40.25,40.25,0,0,1-17,3.62H200.66Zm22.88,68.62h5.25a28.49,28.49,0,0,0,10.62-1.87,22.63,22.63,0,0,0,7.88-5.14,22,22,0,0,0,4.9-7.76,27.92,27.92,0,0,0,1.69-9.86,27,27,0,0,0-1.75-9.8,21.95,21.95,0,0,0-12.84-13,27.94,27.94,0,0,0-10.5-1.87h-5.25Z"/><path class="cls-27" d="M342.57,74.54H309.89l-5.25,15.29H280.25l33.5-88h25l33.49,88H347.82ZM336.5,57.15,326.23,27.86,316,57.15Z"/><path class="cls-27" d="M395.2,47.58,363.11,1.84h27.31l16.33,24L423,1.84h27.31L418.07,47.58V89.83H395.2Z"/><path class="cls-1" d="M114.46,102h25.25a29.73,29.73,0,0,1,12.57,2.7,34.27,34.27,0,0,1,10.28,7.18,33.43,33.43,0,0,1,6.92,10.45,32.23,32.23,0,0,1,0,24.89,33,33,0,0,1-6.88,10.49,33.84,33.84,0,0,1-10.27,7.23,30,30,0,0,1-12.66,2.7H114.46Zm17.06,51.19h3.92a21.14,21.14,0,0,0,7.92-1.4,16.79,16.79,0,0,0,5.88-3.83,16.36,16.36,0,0,0,3.65-5.79,20.7,20.7,0,0,0,1.27-7.35,20.19,20.19,0,0,0-1.31-7.31,16.79,16.79,0,0,0-3.7-5.84,17.07,17.07,0,0,0-5.88-3.83,20.89,20.89,0,0,0-7.83-1.39h-3.92Z"/><path class="cls-1" d="M179.92,134.79a33.81,33.81,0,0,1,21.64-32,41.64,41.64,0,0,1,29.29,0,34.64,34.64,0,0,1,11.54,7.35,33.83,33.83,0,0,1,7.53,11,35.73,35.73,0,0,1,0,27.25,33.62,33.62,0,0,1-7.53,11,34.51,34.51,0,0,1-11.54,7.36,41.64,41.64,0,0,1-29.29,0,34,34,0,0,1-21.64-32Zm17.85,0a17.4,17.4,0,0,0,1.48,7.22,18.13,18.13,0,0,0,9.88,9.54,19,19,0,0,0,20.11-3.79,17.93,17.93,0,0,0,4-5.75,18.38,18.38,0,0,0,0-14.45,18,18,0,0,0-4-5.74,18.46,18.46,0,0,0-5.92-3.79,19.32,19.32,0,0,0-14.19,0,18,18,0,0,0-5.87,3.79,18.21,18.21,0,0,0-4,5.74A17.48,17.48,0,0,0,197.77,134.79Z"/><path class="cls-1" d="M260.45,134.79a33.82,33.82,0,0,1,21.63-32,41.67,41.67,0,0,1,29.3,0,34.6,34.6,0,0,1,11.53,7.35,33.83,33.83,0,0,1,7.53,11,35.73,35.73,0,0,1,0,27.25,33.62,33.62,0,0,1-7.53,11,34.46,34.46,0,0,1-11.53,7.36,41.67,41.67,0,0,1-29.3,0,34,34,0,0,1-21.63-32Zm17.85,0a17.4,17.4,0,0,0,1.48,7.22,18,18,0,0,0,9.88,9.54,19,19,0,0,0,20.11-3.79,17.93,17.93,0,0,0,4.05-5.75,18.49,18.49,0,0,0,0-14.45,18,18,0,0,0-4.05-5.74A19.14,19.14,0,0,0,289.66,118a18,18,0,0,0-5.88,3.79,18.18,18.18,0,0,0-4,5.74A17.48,17.48,0,0,0,278.3,134.79Z"/><path class="cls-1" d="M398.52,167.61H377.28L361,142.36v25.25H343.94V102h26.55a26.14,26.14,0,0,1,9.57,1.61,18.56,18.56,0,0,1,6.75,4.39,18.74,18.74,0,0,1,4,6.45,22.63,22.63,0,0,1,1.34,7.83q0,7.48-3.61,12.15t-10.66,6.31ZM361,131.31h3.22c3.36,0,5.95-.7,7.75-2.09a8,8,0,0,0,0-12c-1.8-1.39-4.39-2.09-7.75-2.09H361Z"/><path class="cls-1" d="M441.7,118.77a21,21,0,0,0-5.57-3.35,14.73,14.73,0,0,0-5.4-1.09,8.74,8.74,0,0,0-5.4,1.57,4.89,4.89,0,0,0-2.09,4.09,4,4,0,0,0,1.05,2.87,8.92,8.92,0,0,0,2.74,2,24,24,0,0,0,3.83,1.44c1.42.4,2.83.84,4.22,1.3q8.35,2.79,12.23,7.45t3.88,12.14a23.66,23.66,0,0,1-1.7,9.14,19.16,19.16,0,0,1-5,7,23,23,0,0,1-8,4.52,33.22,33.22,0,0,1-10.75,1.62A39.56,39.56,0,0,1,402.7,162L410,148.28a29.71,29.71,0,0,0,7.57,5.05A18.29,18.29,0,0,0,425,155c2.79,0,4.86-.63,6.23-1.91a5.95,5.95,0,0,0,1.52-6.92,5.56,5.56,0,0,0-1.74-2,13.72,13.72,0,0,0-3.18-1.7q-1.95-.78-4.74-1.74-3.31-1.05-6.49-2.31a20.51,20.51,0,0,1-5.66-3.35,15.51,15.51,0,0,1-4-5.27,18.56,18.56,0,0,1-1.52-8,23.2,23.2,0,0,1,1.61-8.84,19.67,19.67,0,0,1,4.52-6.79,20.29,20.29,0,0,1,7.14-4.39,26.92,26.92,0,0,1,9.45-1.57,41.28,41.28,0,0,1,10.18,1.35,45,45,0,0,1,10.19,4Z"/></g></g></svg>