<?xml version="1.0" encoding="UTF-8" standalone="no"?>
<!DOCTYPE svg PUBLIC "-//W3C//DTD SVG 1.1//EN" "http://www.w3.org/Graphics/SVG/1.1/DTD/svg11.dtd">
<svg width="100%" height="100%" viewBox="0 0 375 438" version="1.1" xmlns="http://www.w3.org/2000/svg" xmlns:xlink="http://www.w3.org/1999/xlink" xml:space="preserve" xmlns:serif="http://www.serif.com/" style="fill-rule:evenodd;clip-rule:evenodd;stroke-linejoin:round;stroke-miterlimit:2;">
    <g transform="matrix(1,0,0,1,-31.5,7.10543e-15)">
        <path d="M399,381L377.5,381L377.5,224L386,224C390.143,224 393.5,220.642 393.5,216.5L393.5,38.528C400.82,35.553 406,28.375 406,20C406,8.972 397.028,-0 386,-0C374.972,-0 366,8.972 366,20C366,28.375 371.18,35.553 378.5,38.528L378.5,59L59.5,59L59.5,38.528C66.82,35.553 72,28.375 72,20C72,8.972 63.028,-0 52,-0C40.972,-0 32,8.972 32,20C32,28.375 37.18,35.553 44.5,38.528L44.5,216.5C44.5,220.642 47.857,224 52,224L60.5,224L60.5,381L39,381C34.857,381 31.5,384.358 31.5,388.5L31.5,430.5C31.5,434.642 34.857,438 39,438L399,438C403.143,438 406.5,434.642 406.5,430.5L406.5,388.5C406.5,384.358 403.143,381 399,381ZM59.5,111.5L378.5,111.5L378.5,134L59.5,134L59.5,111.5ZM59.5,149L378.5,149L378.5,171.5L59.5,171.5L59.5,149ZM386,15C388.757,15 391,17.243 391,20C391,22.757 388.757,25 386,25C383.243,25 381,22.757 381,20C381,17.243 383.243,15 386,15ZM378.5,74L378.5,96.5L59.5,96.5L59.5,74L378.5,74ZM52,15C54.757,15 57,17.243 57,20C57,22.757 54.757,25 52,25C49.243,25 47,22.757 47,20C47,17.243 49.243,15 52,15ZM59.5,186.5L378.5,186.5L378.5,209L59.5,209L59.5,186.5ZM336.5,282.376L241.929,342.793L241.929,224L336.5,224L336.5,282.376ZM336.5,300.177L336.5,353L253.815,353L336.5,300.177ZM196.071,282.391L101.5,342.809L101.5,326.609L196.071,266.192L196.071,282.391ZM196.071,300.191L196.071,353L113.41,353L196.071,300.191ZM196.071,248.391L101.5,308.809L101.5,224L196.071,224L196.071,248.391ZM75.5,224L86.5,224L86.5,360.5C86.5,364.642 89.857,368 94,368L203.571,368C207.714,368 211.071,364.642 211.071,360.5L211.071,224L226.928,224L226.928,360.5C226.928,364.642 230.285,368 234.428,368L344,368C348.143,368 351.5,364.642 351.5,360.5L351.5,224L362.5,224L362.5,381L75.5,381L75.5,224ZM391.5,423L46.5,423L46.5,396L391.5,396L391.5,423Z" style="fill:rgb(62,167,68);fill-rule:nonzero;"/>
    </g>
</svg>
