<?xml version="1.0" encoding="UTF-8" standalone="no"?>
<!DOCTYPE svg PUBLIC "-//W3C//DTD SVG 1.1//EN" "http://www.w3.org/Graphics/SVG/1.1/DTD/svg11.dtd">
<svg width="100%" height="100%" viewBox="0 0 579 617" version="1.1" xmlns="http://www.w3.org/2000/svg" xmlns:xlink="http://www.w3.org/1999/xlink" xml:space="preserve" xmlns:serif="http://www.serif.com/" style="fill-rule:evenodd;clip-rule:evenodd;stroke-linejoin:round;stroke-miterlimit:2;">
    <g transform="matrix(1,0,0,1,-16.625,2.5)">
        <g id="_x38__10_" transform="matrix(6.12323e-17,1,-1,6.12323e-17,612,0)">
            <g>
                <path d="M95.625,325.125L330.346,325.125L254.018,388.219C246.502,395.716 246.502,407.879 254.018,415.376C261.534,422.873 273.736,422.873 281.252,415.376L395.62,320.86C399.636,316.863 401.338,311.565 401.07,306.325C401.338,301.085 399.635,295.787 395.62,291.79L281.252,197.274C273.736,189.777 261.534,189.777 254.018,197.274C246.502,204.771 246.502,216.935 254.018,224.431L329.619,286.874L95.625,286.874C85.068,286.874 76.5,295.442 76.5,305.999C76.5,316.557 85.068,325.125 95.625,325.125ZM535.5,19.125L76.5,19.125C34.253,19.125 0,53.378 0,95.625L0,516.375C0,558.622 34.253,592.875 76.5,592.875L535.5,592.875C577.747,592.875 612,558.622 612,516.375L612,95.625C612,53.378 577.747,19.125 535.5,19.125ZM459,554.625L76.5,554.625C55.367,554.625 38.25,537.489 38.25,516.375L38.25,95.625C38.25,74.492 55.386,57.375 76.5,57.375L459,57.375L459,554.625ZM573.75,516.375C573.75,537.489 556.614,554.625 535.5,554.625L497.25,554.625L497.25,57.375L535.5,57.375C556.614,57.375 573.75,74.492 573.75,95.625L573.75,516.375Z" style="fill:rgb(62,167,68);fill-rule:nonzero;stroke:rgb(62,167,68);stroke-width:5px;"/>
            </g>
        </g>
    </g>
</svg>
