<?xml version="1.0" encoding="UTF-8" standalone="no"?>
<!DOCTYPE svg PUBLIC "-//W3C//DTD SVG 1.1//EN" "http://www.w3.org/Graphics/SVG/1.1/DTD/svg11.dtd">
<svg width="100%" height="100%" viewBox="0 0 458 513" version="1.1" xmlns="http://www.w3.org/2000/svg" xmlns:xlink="http://www.w3.org/1999/xlink" xml:space="preserve" xmlns:serif="http://www.serif.com/" style="fill-rule:evenodd;clip-rule:evenodd;stroke-linejoin:round;stroke-miterlimit:2;">
    <g transform="matrix(1,0,0,1,-27.016,0.5)">
        <g>
            <path d="M132.588,331.856C124.304,331.856 117.565,338.596 117.565,346.88C117.565,355.164 124.304,361.904 132.588,361.904C140.872,361.904 147.612,355.164 147.612,346.88C147.612,338.596 140.872,331.856 132.588,331.856Z" style="fill:rgb(62,167,68);fill-rule:nonzero;stroke:rgb(62,167,68);stroke-width:1px;"/>
        </g>
        <g>
            <path d="M132.588,45.048L237.66,45.048L237.66,0L27.516,0L27.516,512L237.66,512L237.66,165.096L132.588,165.096C99.491,165.096 72.564,138.169 72.564,105.072C72.564,71.975 99.491,45.048 132.588,45.048ZM132.588,301.856C157.414,301.856 177.612,322.054 177.612,346.88C177.612,366.448 165.06,383.132 147.588,389.325L147.588,431.948L117.588,431.948L117.588,389.325C100.116,383.132 87.565,366.448 87.565,346.88C87.565,322.054 107.762,301.856 132.588,301.856Z" style="fill:rgb(62,167,68);fill-rule:nonzero;stroke:rgb(62,167,68);stroke-width:1px;"/>
        </g>
        <g>
            <path d="M454.46,75.048L132.588,75.048C116.006,75.048 102.564,88.49 102.564,105.072C102.564,121.654 116.006,135.096 132.588,135.096L454.46,135.096C471.042,135.096 484.484,121.654 484.484,105.072C484.484,88.49 471.042,75.048 454.46,75.048Z" style="fill:rgb(62,167,68);fill-rule:nonzero;stroke:rgb(62,167,68);stroke-width:1px;"/>
        </g>
    </g>
</svg>
