<?xml version="1.0" encoding="UTF-8" standalone="no"?>
<!DOCTYPE svg PUBLIC "-//W3C//DTD SVG 1.1//EN" "http://www.w3.org/Graphics/SVG/1.1/DTD/svg11.dtd">
<svg width="100%" height="100%" viewBox="0 0 514 503" version="1.1" xmlns="http://www.w3.org/2000/svg" xmlns:xlink="http://www.w3.org/1999/xlink" xml:space="preserve" xmlns:serif="http://www.serif.com/" style="fill-rule:evenodd;clip-rule:evenodd;stroke-linejoin:round;stroke-miterlimit:2;">
    <g transform="matrix(1,0,0,1,0.500551,-4.53101)">
        <g>
            <circle cx="89.707" cy="427.344" r="18.701" style="fill:rgb(62,167,68);stroke:rgb(62,167,68);stroke-width:1px;"/>
        </g>
        <g>
            <path d="M481.616,367.89L389.467,285.216L406.36,268.323C408.337,266.346 409.666,263.969 410.366,261.454C434.312,256.169 456.348,244.181 473.971,226.571C473.984,226.558 473.998,226.548 474.011,226.534C474.084,226.461 474.145,226.381 474.216,226.307C515.931,184.401 522.481,122.199 496.953,74.044C492.02,64.74 479.469,62.854 472.022,70.302L405.988,136.335L380.716,111.062L446.747,45.03C454.194,37.583 452.312,25.034 443.006,20.099C394.059,-5.852 331.863,1.672 290.509,43.026C262.739,70.796 249.112,109.779 253.24,148.639L239.747,163.031L180.227,103.516L138.792,45.233C137.29,43.121 135.289,41.416 132.969,40.267L65.04,6.659C59.014,3.677 51.759,4.87 47.006,9.623L4.591,52.038C-0.162,56.792 -1.356,64.047 1.625,70.073L35.236,138.001C36.385,140.323 38.091,142.324 40.203,143.824L98.486,185.259L160.632,247.4L29.277,387.472C3.08,415.42 3.733,459.044 30.862,486.173C57.931,513.242 101.604,513.983 129.565,487.768L226.551,396.817L241.126,411.392C247.246,417.512 257.171,417.513 263.292,411.392L280.186,394.499L362.873,486.651C386.299,512.75 426.812,513.873 451.635,489.048L484.014,456.669C508.815,431.869 507.806,391.397 481.616,367.89ZM477.313,109.345C484.795,137.534 479.693,168.102 462.054,192.406C451.894,182.246 459.575,189.929 428.156,158.502L477.313,109.345ZM281.212,164.638C284.56,161.066 286.047,156.136 285.233,151.309C279.927,119.876 290.186,87.684 312.675,65.194C338.537,39.332 374.83,31.003 407.708,39.74L347.464,99.984C341.347,106.101 341.344,116.032 347.465,122.152C435.24,209.924 418.773,193.456 439.879,214.567C426.066,224.559 409.893,230.785 392.812,232.611C374.217,214.017 379.489,219.288 371.078,210.878C364.956,204.758 355.01,204.779 348.912,210.878L318.254,241.536L261.923,185.21L281.212,164.638ZM119.724,162.163C119.105,161.544 118.436,160.978 117.723,160.471L61.584,120.561L34.71,66.251L61.219,39.743L115.529,66.615L155.439,122.755C155.946,123.468 156.512,124.137 157.131,124.756C281.562,249.178 188.036,155.667 296.083,263.697L258.676,301.103L119.724,162.163ZM205.846,353.947C200.31,359.483 199.704,368.299 204.474,374.546L108.123,464.9C92.437,479.607 68.235,479.213 53.027,464.007C37.824,448.804 37.439,424.604 52.145,408.914L182.808,269.579L236.515,323.278L205.846,353.947ZM252.209,378.143L239.096,365.03L359.998,244.129L373.111,257.242L252.209,378.143ZM461.85,434.501L429.471,466.88C417.363,478.99 397.634,478.444 386.206,465.712L302.387,372.299C309.264,365.422 360.393,314.292 367.27,307.415L460.68,391.221C473.406,402.643 473.981,422.369 461.85,434.501Z" style="fill:rgb(62,167,68);fill-rule:nonzero;stroke:rgb(62,167,68);stroke-width:1px;"/>
        </g>
    </g>
</svg>
