<?xml version="1.0" encoding="UTF-8" standalone="no"?>
<!DOCTYPE svg PUBLIC "-//W3C//DTD SVG 1.1//EN" "http://www.w3.org/Graphics/SVG/1.1/DTD/svg11.dtd">
<svg width="100%" height="100%" viewBox="0 0 244 362" version="1.1" xmlns="http://www.w3.org/2000/svg" xmlns:xlink="http://www.w3.org/1999/xlink" xml:space="preserve" xmlns:serif="http://www.serif.com/" style="fill-rule:evenodd;clip-rule:evenodd;stroke-linecap:round;stroke-linejoin:round;stroke-miterlimit:1.5;">
    <g transform="matrix(1,0,0,1,-332.076,-295.485)">
        <path d="M571.125,319.735C571.125,308.689 562.171,299.735 551.125,299.735C506.787,299.735 400.665,299.735 356.326,299.735C345.281,299.735 336.326,308.689 336.326,319.735C336.326,381.818 336.326,570.784 336.326,632.867C336.326,643.913 345.281,652.867 356.326,652.867C400.665,652.867 506.787,652.867 551.125,652.867C562.171,652.867 571.125,643.913 571.125,632.867C571.125,570.784 571.125,381.818 571.125,319.735Z" style="fill:none;stroke:rgb(62,167,68);stroke-width:8.5px;"/>
        <g transform="matrix(9.98803,-6.15591,0.729161,1.18307,-3717.95,2278.58)">
            <path d="M383.595,352.874C383.595,351.857 383.497,351.032 383.377,351.032L382.941,351.032C382.82,351.032 382.722,351.857 382.722,352.874L382.722,577.326C382.722,578.342 382.82,579.167 382.941,579.167L383.377,579.167C383.497,579.167 383.595,578.342 383.595,577.326L383.595,352.874Z" style="fill:rgb(62,167,68);"/>
        </g>
        <g transform="matrix(10.2404,5.72628,-0.656073,1.17327,-3163.66,-2264.9)">
            <path d="M383.595,352.936C383.595,351.885 383.497,351.032 383.377,351.032L382.941,351.032C382.82,351.032 382.722,351.885 382.722,352.936L382.722,577.263C382.722,578.314 382.82,579.167 382.941,579.167L383.377,579.167C383.497,579.167 383.595,578.314 383.595,577.263L383.595,352.936Z" style="fill:rgb(62,167,68);"/>
        </g>
    </g>
</svg>
