<?xml version="1.0" encoding="UTF-8" standalone="no"?>
<!DOCTYPE svg PUBLIC "-//W3C//DTD SVG 1.1//EN" "http://www.w3.org/Graphics/SVG/1.1/DTD/svg11.dtd">
<svg width="100%" height="100%" viewBox="0 0 513 490" version="1.1" xmlns="http://www.w3.org/2000/svg" xmlns:xlink="http://www.w3.org/1999/xlink" xml:space="preserve" xmlns:serif="http://www.serif.com/" style="fill-rule:evenodd;clip-rule:evenodd;stroke-linejoin:round;stroke-miterlimit:2;">
    <g transform="matrix(1,0,0,1,0.5,-11.283)">
        <g>
            <path d="M0,11.783L0,281.783L91.495,281.783C91.175,277.013 91,272.027 91,266.783C91,214.019 108.13,186.325 123.243,161.892C137.518,138.816 151,117.019 151,72.783L181,72.783C181,125.547 163.87,153.241 148.757,177.674C134.482,200.751 121,222.548 121,266.783C121,272.096 121.199,277.077 121.566,281.783L211.495,281.783C211.175,277.013 211,272.027 211,266.783C211,214.019 228.13,186.325 243.243,161.892C257.518,138.816 271,117.019 271,72.783L301,72.783C301,125.547 283.87,153.241 268.757,177.674C254.482,200.751 241,222.548 241,266.783C241,272.096 241.199,277.077 241.566,281.783L331.495,281.783C331.175,277.013 331,272.027 331,266.783C331,214.019 348.13,186.325 363.243,161.892C377.518,138.816 391,117.019 391,72.783L421,72.783C421,125.547 403.87,153.241 388.757,177.674C374.482,200.751 361,222.548 361,266.783C361,272.096 361.199,277.077 361.566,281.783L512,281.783L512,11.783L0,11.783Z" style="fill:rgb(62,167,68);fill-rule:nonzero;stroke:rgb(62,167,68);stroke-width:1px;"/>
        </g>
        <g>
            <path d="M180.912,454.676C179.644,405.855 163.275,379.363 148.757,355.893C136.197,335.588 124.255,316.266 121.566,281.784L91.495,281.784C94.391,325.01 109.631,349.67 123.243,371.675C136.843,393.661 149.714,414.501 150.901,454.676L120.443,454.676L165.996,500.218L211.56,454.676L180.912,454.676Z" style="fill:rgb(62,167,68);fill-rule:nonzero;stroke:rgb(62,167,68);stroke-width:1px;"/>
        </g>
        <g>
            <path d="M420.912,454.676C419.644,405.855 403.275,379.363 388.757,355.893C376.197,335.588 364.255,316.266 361.566,281.784L331.495,281.784C334.391,325.01 349.631,349.67 363.243,371.675C376.843,393.661 389.714,414.501 390.901,454.676L360.443,454.676L405.996,500.218L451.56,454.676L420.912,454.676Z" style="fill:rgb(62,167,68);fill-rule:nonzero;"/>
        </g>
        <g>
            <path d="M300.912,454.676C299.644,405.855 283.275,379.363 268.757,355.893C256.197,335.588 244.255,316.266 241.566,281.784L211.495,281.784C214.391,325.01 229.631,349.67 243.243,371.675C256.843,393.661 269.714,414.501 270.901,454.676L240.443,454.676L285.996,500.218L331.56,454.676L300.912,454.676Z" style="fill:rgb(62,167,68);fill-rule:nonzero;"/>
        </g>
    </g>
</svg>
